<svg width="22" height="21" viewBox="0 0 22 21" fill="none" xmlns="http://www.w3.org/2000/svg">
<path d="M18.8334 14.6667C18.0338 14.6698 17.2659 14.9792 16.6875 15.5313L7.46879 10.5L16.6875 5.46878C17.7661 6.48748 19.4122 6.60748 20.627 5.75596C21.8419 4.90444 22.2906 3.31614 21.7009 1.95482C21.1112 0.593497 19.6456 -0.165585 18.1935 0.138178C16.7414 0.441942 15.703 1.72482 15.7084 3.20836C15.6981 3.34359 15.6981 3.47939 15.7084 3.61461L5.91671 8.96878C5.36612 7.98924 4.33203 7.38072 3.20837 7.37503C1.48248 7.37503 0.083374 8.77414 0.083374 10.5C0.083374 12.2259 1.48248 13.625 3.20837 13.625C4.33203 13.6193 5.36612 13.0108 5.91671 12.0313L15.7084 17.3854C15.6981 17.5207 15.6981 17.6565 15.7084 17.7917C15.7084 19.5176 17.1075 20.9167 18.8334 20.9167C20.5593 20.9167 21.9584 19.5176 21.9584 17.7917C21.9584 16.0658 20.5593 14.6667 18.8334 14.6667Z" fill="white"/>
</svg>
